<svg width="18" height="18" viewBox="0 0 18 18" fill="none" xmlns="http://www.w3.org/2000/svg">
<path d="M6.60039 8.40313C4.94355 8.40313 3.60039 7.05997 3.60039 5.40313V3.00313C3.60039 2.67181 3.86907 2.40313 4.20039 2.40313H4.80039C5.13171 2.40313 5.40039 2.13445 5.40039 1.80313C5.40039 1.47181 5.13171 1.20312 4.80039 1.20312H4.20039C3.20631 1.20312 2.40039 2.00905 2.40039 3.00313V5.40313C2.40195 6.77905 3.07935 8.06652 4.21239 8.84713C5.29611 9.80257 5.94207 11.1595 6.00039 12.6031C6.00039 14.9227 7.88079 16.8031 10.2004 16.8031C12.52 16.8031 14.4004 14.9227 14.4004 12.6031V11.9191C15.6838 11.5878 16.4555 10.2787 16.1242 8.99533C15.7928 7.71193 14.4838 6.94021 13.2004 7.27153C11.917 7.60297 11.1453 8.91192 11.4766 10.1953C11.6949 11.0407 12.355 11.7008 13.2004 11.9191V12.6031C13.2004 14.26 11.8572 15.6031 10.2004 15.6031C8.54355 15.6031 7.20039 14.26 7.20039 12.6031C7.26171 11.1577 7.91223 9.80041 9.00039 8.84713C10.1289 8.06377 10.8016 6.77689 10.8004 5.40313V3.00313C10.8004 2.00905 9.99447 1.20312 9.00039 1.20312H8.40039C8.06907 1.20312 7.80039 1.47181 7.80039 1.80313C7.80039 2.13445 8.06907 2.40313 8.40039 2.40313H9.00039C9.33171 2.40313 9.60039 2.67181 9.60039 3.00313V5.40313C9.60039 7.05997 8.25723 8.40313 6.60039 8.40313ZM13.8004 10.8031C13.1376 10.8031 12.6004 10.2659 12.6004 9.60313C12.6004 8.94037 13.1376 8.40313 13.8004 8.40313C14.4632 8.40313 15.0004 8.94037 15.0004 9.60313C15.0004 10.2659 14.4632 10.8031 13.8004 10.8031Z" fill="#EB5466"/>
</svg>
