<svg width="18" height="24" viewBox="0 0 18 24" fill="none" xmlns="http://www.w3.org/2000/svg">
<path d="M8.70508 5.64062C8.96396 5.64062 9.17383 5.43076 9.17383 5.17188C9.17383 4.91299 8.96396 4.70312 8.70508 4.70312C8.44619 4.70312 8.23633 4.91299 8.23633 5.17188C8.23633 5.43076 8.44619 5.64062 8.70508 5.64062Z" fill="black"/>
<path d="M4.19336 10.8203C4.45224 10.8203 4.66211 10.6104 4.66211 10.3516C4.66211 10.0927 4.45224 9.88281 4.19336 9.88281C3.93448 9.88281 3.72461 10.0927 3.72461 10.3516C3.72461 10.6104 3.93448 10.8203 4.19336 10.8203Z" fill="black"/>
<path d="M8.70508 15.9844C8.96396 15.9844 9.17383 15.7745 9.17383 15.5156C9.17383 15.2567 8.96396 15.0469 8.70508 15.0469C8.44619 15.0469 8.23633 15.2567 8.23633 15.5156C8.23633 15.7745 8.44619 15.9844 8.70508 15.9844Z" fill="black"/>
<path d="M16.9416 0H0.46875C0.209906 0 0 0.209906 0 0.46875C0 2.02472 1.26591 3.29062 2.82188 3.29062H6.35395V5.17547C6.35395 5.38359 6.38124 5.5875 6.43425 5.78503L4.21791 8.00184C3.58739 7.99448 2.98261 8.2387 2.53064 8.69025C1.61433 9.60722 1.61438 11.0987 2.53073 12.0151C2.78979 12.2737 3.10546 12.4684 3.45277 12.5839L6.3667 15.2814C6.27586 16.1253 6.65363 16.9261 7.29516 17.4105V19.7657C7.29516 20.3789 7.68872 20.9017 8.23636 21.0953V23.5312C8.23636 23.7901 8.44627 24 8.70511 24C8.96395 24 9.17386 23.7901 9.17386 23.5312V21.0953C9.72155 20.9017 10.1151 20.379 10.1151 19.7658V17.4112C10.6902 16.978 11.0564 16.2889 11.0564 15.5302C11.0564 14.315 10.1168 13.3048 8.931 13.1896L6.47166 10.9362C6.52211 10.7378 6.54663 10.5337 6.54459 10.329L9.47606 7.39669C10.4126 7.07133 11.0564 6.17606 11.0564 5.17552V3.29062H14.5884C16.1444 3.29062 17.4103 2.02472 17.4103 0.46875C17.4103 0.209906 17.2005 0 16.9416 0ZM9.17766 19.7658C9.17766 20.0264 8.96573 20.2383 8.70516 20.2383C8.44462 20.2383 8.2327 20.0264 8.2327 19.7658V17.8333C8.54035 17.8958 8.85886 17.8988 9.17766 17.8339V19.7658ZM10.1189 15.5302C10.1189 16.2929 9.50194 16.9439 8.70516 16.9439C7.90828 16.9439 7.29145 16.2928 7.29145 15.5302C7.29145 14.7549 7.91048 14.1159 8.70516 14.1159H8.71523C8.71997 14.1162 8.72466 14.1163 8.72939 14.1164C9.49556 14.129 10.1189 14.7631 10.1189 15.5302ZM7.74961 13.3787C7.31068 13.5722 6.94216 13.8965 6.69431 14.3072L4.85803 12.6073C5.32349 12.4683 5.73521 12.1901 6.03778 11.8101L7.74961 13.3787ZM5.73319 9.81469C5.68353 9.86435 5.64567 9.92454 5.62241 9.9908C5.59915 10.0571 5.59108 10.1277 5.5988 10.1975C5.62494 10.4352 5.59058 10.6757 5.49891 10.8966C5.22614 11.5507 4.50534 11.9049 3.81839 11.7164C3.58218 11.651 3.36694 11.5255 3.19364 11.3521C2.64267 10.8012 2.64272 9.90431 3.19345 9.3532C3.49861 9.04833 3.91978 8.90063 4.34925 8.94792C4.41906 8.95566 4.48972 8.94758 4.55599 8.9243C4.62226 8.90102 4.68244 8.86313 4.73208 8.81344L6.88261 6.66248C7.19949 7.05155 7.62862 7.32192 8.09958 7.44745L5.73319 9.81469ZM10.1189 5.17547C10.1189 5.937 9.50109 6.58922 8.70516 6.58922C7.92666 6.58922 7.29145 5.95852 7.29145 5.17547V3.29062H10.1189V5.17547ZM14.5884 2.35313H2.82188C1.94461 2.35313 1.20544 1.7505 0.996516 0.9375H16.4138C16.2049 1.7505 15.4657 2.35313 14.5884 2.35313Z" fill="black"/>
</svg>
