<svg width="24" height="24" viewBox="0 0 24 24" fill="none" xmlns="http://www.w3.org/2000/svg">
<path d="M9.89351 11.6012C9.68825 11.9681 9.40515 12.2856 9.0641 12.5314C8.72304 12.7772 8.3323 12.9454 7.91932 13.024L9.34409 14.343C9.50711 13.9615 9.75098 13.6198 10.0589 13.3416C10.3668 13.0634 10.7313 12.8554 11.1274 12.7318L9.89351 11.6012ZM11.0346 18.2193V19.8354C11.0346 20.1932 11.2299 20.5049 11.5191 20.6716V23.4724C11.5191 23.7379 11.7344 23.9531 11.9998 23.9531C12.2653 23.9531 12.4805 23.7379 12.4805 23.4724V20.6716C12.7699 20.5049 12.9651 20.1932 12.9651 19.8353V18.2174C12.3379 18.4411 11.6509 18.4367 11.0346 18.2193ZM3.55371 0.046875C3.55371 1.37981 4.6338 2.45995 5.96679 2.45995H18.033C19.366 2.45995 20.4461 1.37986 20.4461 0.046875H3.55371ZM10.0694 4.87345C10.0694 5.94028 10.9348 6.80391 11.9999 6.80391C13.0629 6.80391 13.9303 5.94234 13.9303 4.87345V3.4117H10.0694V4.87345ZM11.9999 4.3927C12.2654 4.3927 12.4806 4.60791 12.4806 4.87341C12.4806 5.13886 12.2654 5.35411 11.9999 5.35411C11.7344 5.35411 11.5192 5.13891 11.5192 4.87341C11.5192 4.60791 11.7344 4.3927 11.9999 4.3927ZM9.15565 10.9253C9.28108 10.6238 9.32804 10.2953 9.29215 9.97069L11.5346 7.72781C10.6722 7.58794 9.93673 7.06495 9.50895 6.34055L7.58571 8.26425C7.0233 8.20223 6.43929 8.38683 6.00809 8.81752C5.25438 9.57173 5.25438 10.7936 6.00809 11.5473C6.97399 12.5132 8.6254 12.1973 9.15565 10.9253ZM7.37341 10.6633C7.10796 10.6633 6.89271 10.4481 6.89271 10.1826C6.89271 9.91706 7.10791 9.70186 7.37341 9.70186C7.63891 9.70186 7.85412 9.91706 7.85412 10.1826C7.85407 10.448 7.63887 10.6633 7.37341 10.6633ZM11.9999 13.5609C11.0827 13.5609 10.3151 14.2003 10.1185 15.0583C9.83876 16.2689 10.7623 17.4223 11.9999 17.4223C13.0684 17.4223 13.9303 16.5557 13.9303 15.4918C13.9303 14.4238 13.0644 13.5609 11.9999 13.5609ZM11.9999 15.9567C11.7344 15.9567 11.5192 15.7415 11.5192 15.476C11.5192 15.2105 11.7344 14.9953 11.9999 14.9953C12.2654 14.9953 12.4806 15.2105 12.4806 15.476C12.4806 15.7415 12.2654 15.9567 11.9999 15.9567Z" fill="#EB5466"/>
</svg>
